<svg xmlns="http://www.w3.org/2000/svg" width="504" height="529" viewBox="0 0 504 529" version="1.1"><path d="M 78.500 270.846 C 54.733 275.455, 54.497 275.525, 54.197 278.116 C 53.901 280.667, 54.070 280.748, 61.074 281.439 C 71.009 282.418, 72.691 283.222, 73.892 287.570 C 75.218 292.374, 75.503 291.040, 59.144 356.500 C 51.447 387.300, 43.107 421.283, 40.610 432.017 C 34.834 456.851, 31.646 467.907, 27.993 475.778 C 25.372 481.424, 24.547 482.303, 19.790 484.518 C 16.880 485.872, 13.038 486.985, 11.250 486.990 C 9.116 486.997, 8 487.487, 8 488.418 C 8 489.198, 7.727 490.548, 7.393 491.418 C 6.851 492.831, 9.124 493, 28.650 493 L 50.514 493 59.424 457.750 C 64.323 438.363, 68.512 422.158, 68.732 421.739 C 68.952 421.321, 70.102 421.658, 71.288 422.489 C 74.456 424.708, 82.552 424.395, 87.806 421.852 C 100.545 415.685, 118.162 393.847, 140.493 356.541 C 145.308 348.496, 149.425 342.091, 149.641 342.308 C 149.858 342.525, 147.561 351.656, 144.537 362.601 C 132.229 407.150, 131.999 416.843, 143.105 422.812 C 154.545 428.960, 170.714 421.801, 185.375 404.096 C 193.599 394.164, 200.252 384.217, 199.493 382.989 C 199.161 382.451, 198.032 381.552, 196.985 380.992 C 195.330 380.106, 193.917 381.381, 186.130 390.789 C 181.207 396.737, 175.427 402.818, 173.286 404.302 C 167.028 408.638, 163 407.527, 163 401.465 C 163 399.741, 170.650 369.620, 180 334.529 C 189.350 299.439, 197 270.552, 197 270.335 C 197 270.119, 191.065 270.068, 183.811 270.221 L 170.622 270.500 162.792 291.500 C 149.485 327.191, 136.681 350.922, 116.663 377 C 102.224 395.810, 91.259 405, 83.256 405 C 79.765 405, 77.293 403.016, 76.413 399.509 C 76.048 398.056, 82.175 372.595, 92.444 332.885 C 101.586 297.536, 108.840 268.025, 108.564 267.307 C 107.826 265.383, 104.889 265.729, 78.500 270.846" stroke="none" fill="#ee476e" fill-rule="evenodd"/><path d="M 255.761 147.798 C 219.674 209.265, 190.002 260.178, 189.824 260.938 C 189.585 261.955, 195.491 263.923, 212.249 268.410 C 229.233 272.957, 234.986 274.880, 234.950 276 C 234.924 276.825, 220.578 330.825, 203.071 396 C 185.564 461.175, 171.411 514.687, 171.620 514.917 C 171.829 515.146, 172.171 515.146, 172.381 514.917 C 173.493 513.700, 304.052 290.719, 303.800 290.468 C 303.507 290.177, 258.527 278, 257.746 278 C 257.529 278, 271.903 223.705, 289.688 157.345 C 307.473 90.986, 321.878 36.545, 321.699 36.366 C 321.520 36.187, 291.848 86.332, 255.761 147.798" stroke="none" fill="#fce16b" fill-rule="evenodd"/><path d="M 379.500 74.620 C 344.517 79.865, 317.654 100.101, 303.649 131.758 C 302.127 135.200, 299.708 142.400, 298.274 147.758 C 295.909 156.600, 295.660 159.301, 295.584 177 C 295.478 201.586, 297.590 212.103, 306.027 229 C 315.435 247.842, 329.311 260.840, 353.500 273.469 C 361.076 277.425, 364.557 280.183, 375.500 290.897 C 382.650 297.898, 390.750 305.219, 393.500 307.166 C 415.835 322.979, 446.572 330.961, 485.250 330.991 L 496 331 496 328.019 C 496 324.723, 496.336 324.870, 484.500 322.994 C 455.272 318.360, 434.536 306.581, 417.551 284.961 L 412.914 279.060 415.707 278.442 C 462.979 267.985, 491.962 229.756, 491.994 177.822 C 492.013 146.345, 482.329 121.469, 462.362 101.709 C 450.120 89.593, 435.716 81.490, 418.175 76.849 C 410.658 74.861, 386.993 73.496, 379.500 74.620 M 386.311 86.206 C 368.018 88.058, 350.564 100.680, 341.153 118.861 C 333.048 134.522, 329.870 151.251, 329.927 177.967 C 329.997 211.126, 335.772 232.527, 348.905 248.299 C 367.909 271.121, 398.238 276.542, 422.947 261.532 C 429.637 257.468, 440.292 246.590, 444.328 239.704 C 452.766 225.306, 456.975 204.623, 456.992 177.474 C 457.013 143.369, 449.977 119.406, 435.588 104.583 C 421.382 89.948, 406.002 84.213, 386.311 86.206" stroke="none" fill="#04d4a3" fill-rule="evenodd"/></svg>